<?xml version="1.0" encoding="iso-8859-1"?>
<!-- Uploaded to: SVG Repo, www.svgrepo.com, Generator: SVG Repo Mixer Tools -->
<svg fill="#000000" height="800px" width="800px" version="1.1" id="Layer_1" xmlns="http://www.w3.org/2000/svg" xmlns:xlink="http://www.w3.org/1999/xlink" 
	 viewBox="0 0 512 512" xml:space="preserve">
<g>
	<g>
		<path d="M88.828,330.188c-13.252,0-24.033,10.722-24.033,23.902v70.139c0,5.771,4.679,10.449,10.449,10.449h27.167
			c5.77,0,10.449-4.679,10.449-10.449V354.09C112.86,340.91,102.08,330.188,88.828,330.188z M91.963,413.78h-6.269v-59.69
			c0-1.628,1.436-3.004,3.136-3.004c1.699,0,3.134,1.375,3.134,3.004V413.78z"/>
	</g>
</g>
<g>
	<g>
		<path d="M145.094,330.188c-13.252,0-24.033,10.722-24.033,23.902v70.139c0,5.771,4.679,10.449,10.449,10.449h27.167
			c5.771,0,10.449-4.679,10.449-10.449V354.09C169.126,340.91,158.346,330.188,145.094,330.188z M148.228,413.78h-6.269v-59.69
			c0-1.628,1.436-3.004,3.135-3.004c1.699,0,3.135,1.375,3.135,3.004V413.78z"/>
	</g>
</g>
<g>
	<g>
		<path d="M423.171,330.188c-13.251,0-24.032,10.722-24.032,23.902v70.139c0,5.771,4.679,10.449,10.449,10.449h27.167
			c5.771,0,10.449-4.679,10.449-10.449V354.09C447.205,340.91,436.424,330.188,423.171,330.188z M426.307,413.78h-6.269v-59.69
			c0-1.628,1.436-3.004,3.135-3.004c1.699,0,3.135,1.375,3.135,3.004V413.78z"/>
	</g>
</g>
<g>
	<g>
		<path d="M366.906,330.188c-13.252,0-24.033,10.722-24.033,23.902v70.139c0,5.771,4.679,10.449,10.449,10.449h27.167
			c5.77,0,10.449-4.679,10.449-10.449V354.09C390.939,340.91,380.159,330.188,366.906,330.188z M370.041,413.78h-6.269v-59.69
			c0-1.628,1.436-3.004,3.135-3.004c1.699,0,3.135,1.375,3.135,3.004V413.78z"/>
	</g>
</g>
<g>
	<g>
		<path d="M181.461,52.245c-12.55,0-23.823,5.544-31.52,14.304c-7.698-8.759-18.97-14.304-31.52-14.304
			c-5.77,0-10.449,4.678-10.449,10.449c0,5.771,4.679,10.449,10.449,10.449c11.618,0,21.071,9.452,21.071,21.071
			c0,5.771,4.679,10.449,10.449,10.449c5.77,0,10.449-4.678,10.449-10.449c0-11.619,9.453-21.071,21.071-21.071
			c5.77,0,10.449-4.678,10.449-10.449C191.91,56.923,187.232,52.245,181.461,52.245z"/>
	</g>
</g>
<g>
	<g>
		<path d="M118.42,128.145c-12.55,0-23.823,5.544-31.52,14.304c-7.698-8.759-18.97-14.304-31.52-14.304
			c-5.77,0-10.449,4.678-10.449,10.449s4.679,10.449,10.449,10.449c11.618,0,21.071,9.452,21.071,21.071
			c0,5.771,4.679,10.449,10.449,10.449c5.77,0,10.449-4.678,10.449-10.449c0-11.619,9.453-21.071,21.071-21.071
			c5.77,0,10.449-4.678,10.449-10.449C128.869,132.823,124.19,128.145,118.42,128.145z"/>
	</g>
</g>
<g>
	<g>
		<path d="M425.948,151.484c-12.55,0-23.823,5.544-31.52,14.304c-7.698-8.759-18.97-14.304-31.52-14.304
			c-5.77,0-10.449,4.678-10.449,10.449c0,5.771,4.679,10.449,10.449,10.449c11.618,0,21.071,9.452,21.071,21.071
			c0,5.771,4.679,10.449,10.449,10.449c5.77,0,10.449-4.678,10.449-10.449c0-11.619,9.453-21.071,21.071-21.071
			c5.77,0,10.449-4.678,10.449-10.449C436.397,156.162,431.718,151.484,425.948,151.484z"/>
	</g>
</g>
<g>
	<g>
		<path d="M278.624,305.174h-34.8v-69.538c0-6.713,5.463-12.175,12.175-12.175c6.712,0,12.175,5.462,12.175,12.175v19.667
			c0,5.771,4.679,10.449,10.449,10.449c5.77,0,10.449-4.678,10.449-10.449v-19.667c0-18.237-14.836-33.073-33.073-33.073
			c-18.237,0-33.073,14.837-33.073,33.073v79.987c0,5.771,4.679,10.449,10.449,10.449h45.249c5.771,0,10.449-4.678,10.449-10.449
			C289.073,309.852,284.394,305.174,278.624,305.174z"/>
	</g>
</g>
<g>
	<g>
		<path d="M278.625,276.847c-5.77,0-10.449,4.678-10.449,10.449v0.137c0,5.771,4.679,10.449,10.449,10.449
			c5.771,0,10.449-4.679,10.449-10.449v-0.137C289.074,281.525,284.395,276.847,278.625,276.847z"/>
	</g>
</g>
<g>
	<g>
		<path d="M486.854,298.892c0-2.121-0.622-4.233-1.891-6.029l-40.07-56.708c-1.958-2.771-5.14-4.419-8.534-4.419H322.873v-48.4
			c-0.007,0-0.013,0.001-0.02,0.001c0-1.508-0.305-3.02-0.963-4.427L266.449,60.37V40.49h4.963c5.77,0,10.449-4.678,10.449-10.449
			s-4.679-10.449-10.449-10.449h-4.963v-1.829c0-5.771-4.679-10.449-10.449-10.449c-5.77,0-10.449,4.678-10.449,10.449v1.829h-4.963
			c-5.77,0-10.449,4.678-10.449,10.449s4.679,10.449,10.449,10.449h4.963v19.88L190.11,178.91c-0.658,1.407-0.963,2.919-0.963,4.426
			c-0.007,0-0.014,0.001-0.02,0.001v48.4H75.64c-3.394,0-6.576,1.648-8.534,4.419l-40.07,56.708
			c-1.271,1.798-1.892,3.911-1.891,6.033c-0.008-0.001-0.016-0.002-0.024-0.004v165.043c0,5.771,4.679,10.449,10.449,10.449H476.43
			c5.77,0,10.449-4.678,10.449-10.449V298.893C486.87,298.892,486.863,298.892,486.854,298.892z M189.127,453.486H46.019V309.342
			h143.107V453.486z M189.127,288.443H55.748l25.303-35.81h108.075V288.443z M256,87.358l40.002,85.529h-80.004L256,87.358z
			 M301.976,453.486h-58.151v-78.783c0-6.714,5.463-12.175,12.175-12.175c6.712,0,12.175,5.462,12.175,12.175v25.936
			c0,5.771,4.679,10.449,10.449,10.449c5.77,0,10.449-4.678,10.449-10.449v-25.936c0-18.237-14.836-33.073-33.073-33.073
			c-18.237,0-33.073,14.836-33.073,33.073v78.783h-12.902V193.785h91.951V453.486z M322.873,252.633h108.076l25.303,35.81H322.873
			V252.633z M465.981,453.486H322.873V309.342h143.107V453.486z"/>
	</g>
</g>
<g>
	<g>
		<path d="M278.625,422.181c-5.77,0-10.449,4.678-10.449,10.449v0.137c0,5.771,4.679,10.449,10.449,10.449
			c5.771,0,10.449-4.678,10.449-10.449v-0.137C289.074,426.859,284.395,422.181,278.625,422.181z"/>
	</g>
</g>
<g>
	<g>
		<path d="M472.219,102.752h-9.505c1.378-5.029,2.017-10.273,1.86-15.62c-0.841-28.563-24.523-51.435-53.008-51.435
			c-0.327,0-0.659,0.003-0.986,0.009c-23.405,0.433-43.25,16.343-49.765,37.773c-4.698-1.785-9.799-2.575-14.994-2.216
			c-16.614,1.147-30.276,13.966-32.484,30.48c-0.045,0.336-0.073,0.672-0.109,1.008h-4.343c-5.77,0-10.449,4.678-10.449,10.449
			s4.679,10.449,10.449,10.449h163.334c5.77,0,10.449-4.678,10.449-10.449S477.989,102.752,472.219,102.752z M334.403,102.752
			c1.564-5.775,6.811-10.222,12.856-10.64c5.269-0.357,10.317,2.169,13.165,6.613c1.19,1.858,2.891,3.233,4.822,4.027H334.403z
			 M440.474,102.751h-67.272c4.255-1.75,6.889-6.103,6.417-10.725c-0.111-1.092-0.168-2.205-0.168-3.308
			c0-17.389,14.137-31.796,31.515-32.118c17.561-0.321,32.205,13.647,32.719,31.145C443.838,93.012,442.738,98.116,440.474,102.751z
			"/>
	</g>
</g>
<g>
	<g>
		<path d="M501.551,102.752h-0.517c-5.77,0-10.449,4.678-10.449,10.449s4.679,10.449,10.449,10.449h0.517
			c5.77,0,10.449-4.678,10.449-10.449S507.321,102.752,501.551,102.752z"/>
	</g>
</g>
<g>
	<g>
		<path d="M10.586,483.788h-0.137C4.679,483.788,0,488.466,0,494.237c0,5.771,4.679,10.449,10.449,10.449h0.137
			c5.77,0,10.449-4.678,10.449-10.449C21.035,488.466,16.356,483.788,10.586,483.788z"/>
	</g>
</g>
<g>
	<g>
		<path d="M501.551,483.788H44.389c-5.77,0-10.449,4.678-10.449,10.449c0,5.771,4.679,10.449,10.449,10.449h457.162
			c5.77,0,10.449-4.678,10.449-10.449C512,488.466,507.321,483.788,501.551,483.788z"/>
	</g>
</g>
</svg>