<?xml version="1.0" ?>
<!-- Uploaded to: SVG Repo, www.svgrepo.com, Generator: SVG Repo Mixer Tools -->
<svg width="800px" height="800px" viewBox="0 0 64 64" id="Layer_1" version="1.1" xml:space="preserve" xmlns="http://www.w3.org/2000/svg" xmlns:xlink="http://www.w3.org/1999/xlink">
<style type="text/css">
	.st0{fill:#FFFFFF;}
	.st1{fill:#101820;}
</style>
<g>
<g>
<circle class="st0" cx="32" cy="32" r="32"/>
</g>
<g>
<path class="st1" d="M22,47c-0.276,0-0.5-0.224-0.5-0.5V29h-3v17.5c0,0.276-0.224,0.5-0.5,0.5s-0.5-0.224-0.5-0.5v-18    c0-0.276,0.224-0.5,0.5-0.5h4c0.276,0,0.5,0.224,0.5,0.5v18C22.5,46.776,22.276,47,22,47z"/>
</g>
<g>
<path class="st1" d="M30,47c-0.276,0-0.5-0.224-0.5-0.5V29h-3v17.5c0,0.276-0.224,0.5-0.5,0.5s-0.5-0.224-0.5-0.5v-18    c0-0.276,0.224-0.5,0.5-0.5h4c0.276,0,0.5,0.224,0.5,0.5v18C30.5,46.776,30.276,47,30,47z"/>
</g>
<g>
<path class="st1" d="M38,47c-0.276,0-0.5-0.224-0.5-0.5V29h-3v17.5c0,0.276-0.224,0.5-0.5,0.5s-0.5-0.224-0.5-0.5v-18    c0-0.276,0.224-0.5,0.5-0.5h4c0.276,0,0.5,0.224,0.5,0.5v18C38.5,46.776,38.276,47,38,47z"/>
</g>
<g>
<path class="st1" d="M46,47c-0.276,0-0.5-0.224-0.5-0.5V29h-3v17.5c0,0.276-0.224,0.5-0.5,0.5s-0.5-0.224-0.5-0.5v-18    c0-0.276,0.224-0.5,0.5-0.5h4c0.276,0,0.5,0.224,0.5,0.5v18C46.5,46.776,46.276,47,46,47z"/>
</g>
<g>
<path class="st1" d="M23,29h-6c-0.276,0-0.5-0.224-0.5-0.5v-2c0-0.276,0.224-0.5,0.5-0.5h6c0.276,0,0.5,0.224,0.5,0.5v2    C23.5,28.776,23.276,29,23,29z M17.5,28h5v-1h-5V28z"/>
</g>
<g>
<path class="st1" d="M31,29h-6c-0.276,0-0.5-0.224-0.5-0.5v-2c0-0.276,0.224-0.5,0.5-0.5h6c0.276,0,0.5,0.224,0.5,0.5v2    C31.5,28.776,31.276,29,31,29z M25.5,28h5v-1h-5V28z"/>
</g>
<g>
<path class="st1" d="M50,27H14c-0.276,0-0.5-0.224-0.5-0.5v-2c0-0.276,0.224-0.5,0.5-0.5h36c0.276,0,0.5,0.224,0.5,0.5v2    C50.5,26.776,50.276,27,50,27z M14.5,26h35v-1h-35V26z"/>
</g>
<g>
<path class="st1" d="M39,29h-6c-0.276,0-0.5-0.224-0.5-0.5v-2c0-0.276,0.224-0.5,0.5-0.5h6c0.276,0,0.5,0.224,0.5,0.5v2    C39.5,28.776,39.276,29,39,29z M33.5,28h5v-1h-5V28z"/>
</g>
<g>
<path class="st1" d="M47,29h-6c-0.276,0-0.5-0.224-0.5-0.5v-2c0-0.276,0.224-0.5,0.5-0.5h6c0.276,0,0.5,0.224,0.5,0.5v2    C47.5,28.776,47.276,29,47,29z M41.5,28h5v-1h-5V28z"/>
</g>
<g>
<path class="st1" d="M49,25H15c-0.202,0-0.385-0.122-0.462-0.309c-0.078-0.187-0.035-0.402,0.108-0.545l14-14    c0.195-0.195,0.512-0.195,0.707,0s0.195,0.512,0,0.707L16.207,24h31.586L32,8.207l-0.646,0.646c-0.195,0.195-0.512,0.195-0.707,0    s-0.195-0.512,0-0.707l1-1c0.195-0.195,0.512-0.195,0.707,0l17,17c0.143,0.143,0.186,0.358,0.108,0.545S49.202,25,49,25z M44,23    H20c-0.202,0-0.385-0.122-0.462-0.309c-0.078-0.187-0.035-0.402,0.108-0.545l12-12c0.195-0.195,0.512-0.195,0.707,0l12,12    c0.143,0.143,0.186,0.358,0.108,0.545S44.202,23,44,23z M21.207,22h21.586L32,11.207L21.207,22z"/>
</g>
<g>
<path class="st1" d="M15,29H8c-0.276,0-0.5-0.224-0.5-0.5S7.724,28,8,28h7c0.276,0,0.5,0.224,0.5,0.5S15.276,29,15,29z"/>
</g>
<g>
<path class="st1" d="M56,29h-7c-0.276,0-0.5-0.224-0.5-0.5S48.724,28,49,28h7c0.276,0,0.5,0.224,0.5,0.5S56.276,29,56,29z"/>
</g>
<g>
<path class="st1" d="M53,53c-0.276,0-0.5-0.224-0.5-0.5V47h-3v1.5c0,0.276-0.224,0.5-0.5,0.5s-0.5-0.224-0.5-0.5v-2    c0-0.276,0.224-0.5,0.5-0.5h4c0.276,0,0.5,0.224,0.5,0.5v6C53.5,52.776,53.276,53,53,53z"/>
</g>
<g>
<path class="st1" d="M54,47h-6c-0.276,0-0.5-0.224-0.5-0.5S47.724,46,48,46h6c0.276,0,0.5,0.224,0.5,0.5S54.276,47,54,47z"/>
</g>
<g>
<path class="st1" d="M53,45h-4c-0.173,0-0.334-0.09-0.426-0.237c-0.091-0.147-0.099-0.332-0.021-0.486l2-4    c0.17-0.339,0.725-0.339,0.895,0l2,4c0.077,0.155,0.069,0.339-0.021,0.486C53.334,44.91,53.173,45,53,45z M49.809,44h2.383    L51,41.618L49.809,44z"/>
</g>
<g>
<path class="st1" d="M53,38h-4c-0.276,0-0.5-0.224-0.5-0.5v-6c0-0.276,0.224-0.5,0.5-0.5h4c0.276,0,0.5,0.224,0.5,0.5v6    C53.5,37.776,53.276,38,53,38z M49.5,37h3v-5h-3V37z"/>
</g>
<g>
<path class="st1" d="M53,35h-4c-0.276,0-0.5-0.224-0.5-0.5S48.724,34,49,34h4c0.276,0,0.5,0.224,0.5,0.5S53.276,35,53,35z"/>
</g>
<g>
<path class="st1" d="M51,38c-0.276,0-0.5-0.224-0.5-0.5v-6c0-0.276,0.224-0.5,0.5-0.5s0.5,0.224,0.5,0.5v6    C51.5,37.776,51.276,38,51,38z"/>
</g>
<g>
<path class="st1" d="M11,53c-0.276,0-0.5-0.224-0.5-0.5v-6c0-0.276,0.224-0.5,0.5-0.5h4c0.276,0,0.5,0.224,0.5,0.5v2    c0,0.276-0.224,0.5-0.5,0.5s-0.5-0.224-0.5-0.5V47h-3v5.5C11.5,52.776,11.276,53,11,53z"/>
</g>
<g>
<path class="st1" d="M16,47h-6c-0.276,0-0.5-0.224-0.5-0.5S9.724,46,10,46h6c0.276,0,0.5,0.224,0.5,0.5S16.276,47,16,47z"/>
</g>
<g>
<path class="st1" d="M15,45h-4c-0.173,0-0.334-0.09-0.425-0.237s-0.1-0.332-0.022-0.486l2-4c0.17-0.339,0.725-0.339,0.895,0l2,4    c0.078,0.155,0.069,0.339-0.022,0.486S15.173,45,15,45z M11.809,44h2.382L13,41.618L11.809,44z"/>
</g>
<g>
<path class="st1" d="M15,38h-4c-0.276,0-0.5-0.224-0.5-0.5v-6c0-0.276,0.224-0.5,0.5-0.5h4c0.276,0,0.5,0.224,0.5,0.5v6    C15.5,37.776,15.276,38,15,38z M11.5,37h3v-5h-3V37z"/>
</g>
<g>
<path class="st1" d="M15,35h-4c-0.276,0-0.5-0.224-0.5-0.5S10.724,34,11,34h4c0.276,0,0.5,0.224,0.5,0.5S15.276,35,15,35z"/>
</g>
<g>
<path class="st1" d="M13,38c-0.276,0-0.5-0.224-0.5-0.5v-6c0-0.276,0.224-0.5,0.5-0.5s0.5,0.224,0.5,0.5v6    C13.5,37.776,13.276,38,13,38z"/>
</g>
<g>
<path class="st1" d="M26,38h-4c-0.276,0-0.5-0.224-0.5-0.5v-6c0-0.276,0.224-0.5,0.5-0.5h4c0.276,0,0.5,0.224,0.5,0.5v6    C26.5,37.776,26.276,38,26,38z M22.5,37h3v-5h-3V37z"/>
</g>
<g>
<path class="st1" d="M26,35h-4c-0.276,0-0.5-0.224-0.5-0.5S21.724,34,22,34h4c0.276,0,0.5,0.224,0.5,0.5S26.276,35,26,35z"/>
</g>
<g>
<path class="st1" d="M24,38c-0.276,0-0.5-0.224-0.5-0.5v-6c0-0.276,0.224-0.5,0.5-0.5s0.5,0.224,0.5,0.5v6    C24.5,37.776,24.276,38,24,38z"/>
</g>
<g>
<path class="st1" d="M34,38h-4c-0.276,0-0.5-0.224-0.5-0.5v-6c0-0.276,0.224-0.5,0.5-0.5h4c0.276,0,0.5,0.224,0.5,0.5v6    C34.5,37.776,34.276,38,34,38z M30.5,37h3v-5h-3V37z"/>
</g>
<g>
<path class="st1" d="M34,35h-4c-0.276,0-0.5-0.224-0.5-0.5S29.724,34,30,34h4c0.276,0,0.5,0.224,0.5,0.5S34.276,35,34,35z"/>
</g>
<g>
<path class="st1" d="M32,38c-0.276,0-0.5-0.224-0.5-0.5v-6c0-0.276,0.224-0.5,0.5-0.5s0.5,0.224,0.5,0.5v6    C32.5,37.776,32.276,38,32,38z"/>
</g>
<g>
<path class="st1" d="M42,38h-4c-0.276,0-0.5-0.224-0.5-0.5v-6c0-0.276,0.224-0.5,0.5-0.5h4c0.276,0,0.5,0.224,0.5,0.5v6    C42.5,37.776,42.276,38,42,38z M38.5,37h3v-5h-3V37z"/>
</g>
<g>
<path class="st1" d="M42,35h-4c-0.276,0-0.5-0.224-0.5-0.5S37.724,34,38,34h4c0.276,0,0.5,0.224,0.5,0.5S42.276,35,42,35z"/>
</g>
<g>
<path class="st1" d="M40,38c-0.276,0-0.5-0.224-0.5-0.5v-6c0-0.276,0.224-0.5,0.5-0.5s0.5,0.224,0.5,0.5v6    C40.5,37.776,40.276,38,40,38z"/>
</g>
<g>
<path class="st1" d="M51,53c-0.276,0-0.5-0.224-0.5-0.5V51h-37v1.5c0,0.276-0.224,0.5-0.5,0.5s-0.5-0.224-0.5-0.5v-2    c0-0.276,0.224-0.5,0.5-0.5h38c0.276,0,0.5,0.224,0.5,0.5v2C51.5,52.776,51.276,53,51,53z"/>
</g>
<g>
<path class="st1" d="M50,51H14c-0.276,0-0.5-0.224-0.5-0.5v-2c0-0.276,0.224-0.5,0.5-0.5h36c0.276,0,0.5,0.224,0.5,0.5v2    C50.5,50.776,50.276,51,50,51z M14.5,50h35v-1h-35V50z"/>
</g>
<g>
<path class="st1" d="M56,25h-4c-0.276,0-0.5-0.224-0.5-0.5S51.724,24,52,24h4c0.276,0,0.5,0.224,0.5,0.5S56.276,25,56,25z"/>
</g>
<g>
<path class="st1" d="M12,25H8c-0.276,0-0.5-0.224-0.5-0.5S7.724,24,8,24h4c0.276,0,0.5,0.224,0.5,0.5S12.276,25,12,25z"/>
</g>
<g>
<path class="st1" d="M10,25c-0.276,0-0.5-0.224-0.5-0.5v-7c0-0.276,0.224-0.5,0.5-0.5h4c0.276,0,0.5,0.224,0.5,0.5v5    c0,0.276-0.224,0.5-0.5,0.5s-0.5-0.224-0.5-0.5V18h-3v6.5C10.5,24.776,10.276,25,10,25z"/>
</g>
<g>
<path class="st1" d="M15,18H9c-0.276,0-0.5-0.224-0.5-0.5v-2C8.5,15.224,8.724,15,9,15h6c0.276,0,0.5,0.224,0.5,0.5v2    C15.5,17.776,15.276,18,15,18z M9.5,17h5v-1h-5V17z"/>
</g>
<g>
<path class="st1" d="M54,25c-0.276,0-0.5-0.224-0.5-0.5V18h-3v4.5c0,0.276-0.224,0.5-0.5,0.5s-0.5-0.224-0.5-0.5v-5    c0-0.276,0.224-0.5,0.5-0.5h4c0.276,0,0.5,0.224,0.5,0.5v7C54.5,24.776,54.276,25,54,25z"/>
</g>
<g>
<path class="st1" d="M55,18h-6c-0.276,0-0.5-0.224-0.5-0.5v-2c0-0.276,0.224-0.5,0.5-0.5h6c0.276,0,0.5,0.224,0.5,0.5v2    C55.5,17.776,55.276,18,55,18z M49.5,17h5v-1h-5V17z"/>
</g>
<g>
<path class="st1" d="M12,14c-0.276,0-0.5-0.224-0.5-0.5v-3c0-0.276,0.224-0.5,0.5-0.5h14c0.276,0,0.5,0.224,0.5,0.5    S26.276,11,26,11H12.5v2.5C12.5,13.776,12.276,14,12,14z"/>
</g>
<g>
<path class="st1" d="M52,14c-0.276,0-0.5-0.224-0.5-0.5V11H38c-0.276,0-0.5-0.224-0.5-0.5S37.724,10,38,10h14    c0.276,0,0.5,0.224,0.5,0.5v3C52.5,13.776,52.276,14,52,14z"/>
</g>
<g>
<path class="st1" d="M23,14h-8c-0.276,0-0.5-0.224-0.5-0.5S14.724,13,15,13h8c0.276,0,0.5,0.224,0.5,0.5S23.276,14,23,14z"/>
</g>
<g>
<path class="st1" d="M49,14h-8c-0.276,0-0.5-0.224-0.5-0.5S40.724,13,41,13h8c0.276,0,0.5,0.224,0.5,0.5S49.276,14,49,14z"/>
</g>
</g>
</svg>